<svg xmlns="http://www.w3.org/2000/svg" xmlns:xlink="http://www.w3.org/1999/xlink" width="150" height="50" viewBox="0 0 150 50"><symbol id="icon" viewBox="0 0 150 50"><path fill="currentColor" d="M7.19 0C3.225 0 0 3.023 0 6.74v36.528C0 46.98 3.225 50 7.19 50h135.62c3.964 0 7.19-3.02 7.19-6.732V6.739C150 3.023 146.775 0 142.81 0zm0 1.745h135.62c2.938 0 5.328 2.24 5.328 4.995v36.528c0 2.75-2.39 4.987-5.329 4.987H7.19c-2.938 0-5.328-2.237-5.328-4.987V6.739c0-2.754 2.39-4.994 5.328-4.994zm58.954 7.982v8.717h1.61V9.727zm10.799 0v7.034c0 .614-.027 1.277-.053 1.683h1.375l.079-.897h.025c.459.737 1.192 1.032 2.018 1.032 1.441 0 2.895-1.068 2.895-3.217.013-1.817-1.1-3.032-2.66-3.032-.956 0-1.65.38-2.043.957h-.027v-3.56zm8.177 0v8.717h1.61V9.727zm38.829 0v8.717h1.61v-3.586c0-.159.014-.319.067-.453a1.336 1.336 0 0 1 1.257-.848c.89 0 1.23.663 1.23 1.523v3.364h1.613V14.92c0-1.916-1.14-2.59-2.228-2.59-.406 0-.786.097-1.113.27a2.105 1.973 0 0 0-.8.675h-.027V9.727zm-108.145.04c-1.556 0-2.825 1.185-2.825 2.643v25.197c0 1.458 1.269 2.64 2.825 2.64h12.098c1.555 0 2.823-1.182 2.823-2.64V12.41c0-1.458-1.268-2.643-2.823-2.643zm47.011.205c-.537 0-.903.357-.903.822 0 .442.353.811.89.811.564 0 .918-.369.918-.81-.013-.466-.354-.823-.905-.823zm-21.36.196l-2.83 8.276h1.663l.76-2.346h2.79l.8 2.346h1.742l-2.869-8.276zm79.112.761l-1.586.418v1.118h-.904v1.129h.904v2.812c0 .786.157 1.338.511 1.681.301.307.786.492 1.389.492.498 0 .93-.075 1.166-.16l-.027-1.142c-.184.05-.34.062-.629.062-.615 0-.825-.368-.825-1.106v-2.64h1.533v-1.128h-1.533zm-78.157.444h.028c.13.478.274 1.042.445 1.546l.693 2.038h-2.264l.68-2.038c.143-.492.288-1.068.418-1.546zm14.469.957c-1.01 0-1.834.257-2.306.527l.315.983c.432-.258 1.086-.443 1.715-.443 1.126 0 1.298.651 1.298 1.044v.098c-2.358-.013-3.786.761-3.786 2.259 0 .91.72 1.78 2.004 1.78.837 0 1.506-.33 1.886-.798h.04l.117.664h1.455c-.08-.369-.105-.897-.105-1.437v-2.149c0-1.313-.59-2.528-2.633-2.528zm15.738 0c-1.008 0-1.834.257-2.305.527l.314.983c.432-.258 1.087-.443 1.716-.443 1.126 0 1.296.651 1.296 1.044v.098c-2.358-.013-3.785.761-3.785 2.259 0 .91.72 1.78 2.004 1.78.838 0 1.507-.33 1.886-.798h.04l.117.664h1.454c-.078-.369-.103-.897-.103-1.437v-2.149c0-1.313-.59-2.528-2.634-2.528zm19.105 0c-2.043 0-3.117 1.558-3.117 3.217 0 1.829 1.218 3.019 3.288 3.019.917 0 1.677-.16 2.227-.38l-.235-1.032a5.43 5.43 0 0 1-1.77.27c-1.034 0-1.926-.467-1.964-1.547h4.27c.027-.134.054-.356.054-.637 0-1.314-.683-2.91-2.752-2.91zm10.773 0c-1.926 0-3.301 1.203-3.301 3.167 0 1.928 1.402 3.082 3.196 3.082 1.625 0 3.275-.983 3.275-3.18 0-1.817-1.27-3.07-3.17-3.07zm8.308 0c-1.06 0-1.756.564-2.043 1.031h-.04l-.078-.896h-1.402c.027.515.053 1.092.053 1.78v4.199h1.61V14.92c0-.172.026-.356.079-.479.171-.454.616-.884 1.258-.884.877 0 1.22.651 1.22 1.51v3.377h1.609v-3.55c0-1.89-1.152-2.564-2.266-2.564zm23.405 0c-2.044 0-3.117 1.558-3.117 3.217 0 1.829 1.217 3.019 3.287 3.019.917 0 1.677-.16 2.226-.38l-.235-1.032c-.498.16-1.021.27-1.768.27-1.035 0-1.926-.467-1.965-1.547h4.27a3.51 3.51 0 0 0 .053-.637c0-1.314-.682-2.91-2.751-2.91zm-113.759.115h2.805c.184 0 .334.14.334.315 0 .164-.15.306-.334.306h-2.805c-.178 0-.33-.142-.33-.306a.337.316 0 0 1 .33-.315zm26.392.02l2.372 5.979h1.585l2.437-5.979h-1.69l-1.022 3.032c-.17.54-.314 1.007-.432 1.498h-.04c-.118-.491-.248-.97-.433-1.498l-1.033-3.032zm15.163 0v5.979h1.61v-5.98zm29.627.896c1.074 0 1.336.908 1.323 1.46h-2.803c.065-.613.484-1.46 1.48-1.46zm42.486 0c1.073 0 1.335.908 1.322 1.46h-2.803c.065-.613.485-1.46 1.48-1.46zm-31.661.06c1.1 0 1.546 1.082 1.546 2.015 0 1.215-.643 2.05-1.56 2.05-.97 0-1.584-.872-1.584-2.027 0-.994.457-2.037 1.598-2.037zm-22.422.087c1.074 0 1.61.86 1.61 1.915 0 1.215-.614 1.965-1.624 1.965-.693 0-1.257-.443-1.428-1.056a1.802 1.689 0 0 1-.04-.357v-.97c0-.147.027-.282.054-.393a1.477 1.477 0 0 1 1.427-1.104zM14.695 15.09H29.01v19.843H14.695zm43.244.43v.822c0 .111 0 .222-.038.333-.158.43-.617.823-1.27.823-.512 0-.918-.27-.918-.86 0-.909 1.086-1.13 2.226-1.117zm15.738 0v.822c0 .111 0 .222-.039.333-.157.43-.616.823-1.27.823-.511 0-.916-.27-.916-.86 0-.909 1.087-1.13 2.225-1.117zm17.548 6.356c-1.752 0-3.158.424-4.22 1.265-1.064.844-1.587 1.928-1.587 3.25 0 2.022 1.504 3.56 4.507 4.607 1.106.386 1.89.796 2.37 1.242.472.448.71.997.71 1.641 0 .742-.29 1.327-.863 1.763-.578.434-1.383.656-2.424.656-1.441 0-2.765-.337-3.97-1.002l-.64 2.148c1.119.666 2.6 1.002 4.452 1.002 1.998 0 3.556-.467 4.68-1.408 1.012-.856 1.523-1.974 1.523-3.343 0-1.114-.35-2.043-1.044-2.792-.7-.75-1.783-1.407-3.266-1.96-1.202-.446-2.035-.858-2.495-1.238-.526-.42-.789-.948-.789-1.58 0-.572.23-1.058.687-1.462.548-.434 1.308-.666 2.278-.666 1.228 0 2.33.25 3.297.742l.694-2.102c-1.037-.506-2.338-.763-3.9-.763zm-47.095.238l-5.526 16.097h2.851l1.531-4.725h5.582l1.604 4.725h2.933L47.55 22.115zm56.775 1.6l-2.698.765v2.124h-1.808v1.933h1.808v5.854c0 1.465.303 2.51.92 3.128.61.625 1.466.931 2.548.931.884 0 1.596-.096 2.14-.286l-.078-1.955c-.326.078-.73.112-1.223.112-1.07 0-1.609-.71-1.609-2.142v-5.642h3.037v-1.933h-3.037zm-55.19.55h.049c.423 1.59.714 2.601.87 3.034l1.447 4.204H43.47l1.427-4.204c.377-1.34.645-2.35.818-3.034zm86.156 2.078c-1.815 0-3.259.62-4.334 1.86-1.017 1.167-1.529 2.621-1.529 4.375 0 1.781.552 3.203 1.647 4.261 1.095 1.059 2.604 1.586 4.52 1.586 1.6 0 2.988-.233 4.156-.715l-.433-1.793c-1.004.37-2.113.553-3.339.553-1.106 0-2.005-.27-2.7-.814-.767-.604-1.166-1.477-1.199-2.622h8.258c.065-.323.1-.714.1-1.173 0-1.449-.367-2.668-1.095-3.658-.914-1.24-2.263-1.86-4.052-1.86zm-70.383.028c-1.87 0-3.261.691-4.184 2.072h-.048l-.152-1.84h-2.42c.069 1.305.104 2.574.104 3.816V42.92h2.75v-6.097c.716 1.103 1.892 1.65 3.536 1.65 1.519 0 2.794-.51 3.817-1.524 1.148-1.148 1.72-2.703 1.72-4.683 0-1.766-.49-3.194-1.463-4.275-.984-1.085-2.199-1.622-3.66-1.622zm13.606 0c-1.868 0-3.257.691-4.181 2.072h-.047l-.159-1.84h-2.415c.066 1.305.102 2.574.102 3.816V42.92h2.752v-6.097c.717 1.103 1.895 1.65 3.534 1.65 1.522 0 2.792-.51 3.818-1.524 1.148-1.148 1.72-2.703 1.72-4.683 0-1.766-.487-3.194-1.467-4.275-.975-1.085-2.196-1.622-3.657-1.622zm35.801 0c-1.885 0-3.38.566-4.495 1.716-1.112 1.145-1.667 2.62-1.667 4.417 0 1.717.537 3.148 1.614 4.277 1.079 1.13 2.53 1.694 4.352 1.694 1.881 0 3.393-.588 4.535-1.763 1.087-1.15 1.627-2.61 1.627-4.397 0-1.735-.527-3.157-1.577-4.25-1.104-1.134-2.564-1.694-4.389-1.694zm13.564 0c-.713 0-1.38.202-1.991.62-.632.458-1.088 1.073-1.377 1.835h-.074l-.103-2.222h-2.394a83.47 83.47 0 0 1 .073 3.651v7.957h2.753v-6.09c0-.931.227-1.684.687-2.29.528-.682 1.274-1.026 2.242-1.026.304 0 .597.02.867.066v-2.457c-.2-.031-.43-.044-.683-.044zm7.208 1.76c.984 0 1.716.364 2.194 1.077.373.561.547 1.219.532 1.98h-5.733c.083-.775.358-1.446.816-2.001.563-.697 1.293-1.056 2.191-1.056zm-20.873.126c1.072 0 1.894.459 2.48 1.38.489.76.734 1.676.734 2.737 0 1.062-.255 1.986-.768 2.756-.591.944-1.42 1.408-2.466 1.408-1.075 0-1.908-.458-2.496-1.379-.499-.76-.743-1.672-.743-2.74 0-1.096.244-2.023.742-2.782.575-.921 1.416-1.38 2.518-1.38zm-50.202.16c1.004 0 1.801.39 2.4 1.15.544.73.812 1.664.812 2.791 0 1.23-.287 2.217-.864 2.965-.576.75-1.39 1.122-2.424 1.122-.881 0-1.6-.292-2.151-.868-.556-.581-.827-1.296-.827-2.14v-1.934c0-.207.042-.468.126-.788a2.943 2.943 0 0 1 1.083-1.667 2.97 2.97 0 0 1 1.846-.63zm13.611 0c1.001 0 1.8.39 2.4 1.15.541.73.814 1.664.814 2.791 0 1.23-.29 2.217-.869 2.965-.578.75-1.383 1.122-2.425 1.122-.88 0-1.598-.292-2.15-.868-.554-.581-.827-1.296-.827-2.14v-1.934c0-.207.04-.468.125-.788a2.957 2.957 0 0 1 1.086-1.667 2.967 2.967 0 0 1 1.846-.63zm-52.351 7.688c.806 0 1.46.615 1.46 1.37a1.46 1.368 0 0 1-1.46 1.367 1.46 1.368 0 0 1-1.458-1.366c0-.756.655-1.371 1.458-1.371z"/></symbol><use xlink:href="#icon"/></svg>