<svg xmlns="http://www.w3.org/2000/svg" xmlns:xlink="http://www.w3.org/1999/xlink" width="150" height="50" viewBox="0 0 150 50"><symbol id="icon" viewBox="0 0 150 50"><path d="M7.431 0C3.333 0 0 3.318 0 7.394v35.211C0 46.683 3.333 50 7.431 50H142.57c4.097 0 7.43-3.317 7.43-7.395V7.395C150 3.317 146.667 0 142.57 0zm0 1.747H142.57c3.128 0 5.675 2.533 5.675 5.647v35.211c0 3.115-2.547 5.648-5.675 5.648H7.43c-3.129 0-5.676-2.533-5.676-5.648V7.395c0-3.115 2.547-5.648 5.676-5.648zm57.637 8.72c-.576 0-1.058.21-1.448.627-.391.417-.586.943-.586 1.577 0 .59.185 1.078.555 1.46a1.83 1.83 0 0 0 1.376.575c.575 0 1.056-.209 1.447-.625.39-.418.585-.944.585-1.578 0-.593-.185-1.08-.554-1.462a1.836 1.836 0 0 0-1.375-.574zm25.73 0c-.575 0-1.057.21-1.447.627-.39.417-.586.943-.586 1.577 0 .59.185 1.078.554 1.46.37.384.829.575 1.376.575.575 0 1.058-.209 1.448-.625.391-.418.586-.944.586-1.578 0-.593-.186-1.08-.555-1.462a1.835 1.835 0 0 0-1.376-.574zm-34.56.075c-.054 0-.17.003-.346.01a13.1 13.1 0 0 1-.398.01h-.545a50.242 50.242 0 0 1 0 4.034c.54.023.963.035 1.27.035.681 0 1.21-.218 1.588-.656.378-.438.567-.95.567-1.536 0-.52-.169-.967-.506-1.34-.337-.371-.881-.557-1.63-.557zm4.494 0c-.168 0-.351.003-.55.01-.198.005-.328.01-.39.01h-.539a38.5 38.5 0 0 1 .04 1.923c0 .783-.013 1.485-.04 2.11h.865a47.752 47.752 0 0 1-.028-1.609c.11-.002.226-.003.346-.003.286 0 .494.087.622.258.13.172.314.622.555 1.354h.922c-.268-.713-.481-1.202-.638-1.47-.159-.268-.342-.43-.552-.488v-.047c.544-.202.815-.56.815-1.075 0-.648-.476-.973-1.428-.973zm10.402 0c-.053 0-.169.003-.345.01-.176.005-.309.01-.398.01h-.546c.028.53.042 1.171.042 1.923 0 .783-.014 1.485-.042 2.11.54.024.964.036 1.271.036.68 0 1.21-.218 1.588-.656a2.28 2.28 0 0 0 .567-1.536c0-.52-.17-.967-.506-1.34-.337-.371-.88-.557-1.63-.557zm10.347 0c-.16 0-.348.003-.566.01-.217.005-.366.01-.442.01h-.542c.027.538.04 1.18.04 1.923 0 .81-.013 1.512-.04 2.11h.876a45.212 45.212 0 0 1-.035-1.537c.042.004.111.006.209.006.536 0 .988-.118 1.356-.353.368-.235.552-.6.552-1.094 0-.361-.136-.63-.408-.808-.272-.178-.605-.267-1-.267zm3.735 0c-.16 0-.349.003-.566.01-.219.005-.366.01-.443.01h-.541c.026.538.04 1.18.04 1.923 0 .81-.014 1.512-.04 2.11h.874a44.261 44.261 0 0 1-.034-1.537c.042.004.112.006.21.006.534 0 .986-.118 1.355-.353s.552-.6.552-1.094c0-.361-.136-.63-.408-.808-.272-.178-.605-.267-1-.267zm-37.864.02c0 .125-.242.809-.727 2.05-.484 1.242-.726 1.901-.726 1.983h.937c0-.147.098-.534.292-1.16h1.439c.188.637.283 1.023.283 1.16h.996c0-.112-.22-.783-.658-2.013-.44-1.23-.659-1.903-.659-2.02zm3.169 0c.03.527.046 1.17.046 1.923 0 .766-.016 1.47-.046 2.11h.765a48.497 48.497 0 0 1-.044-1.865c0-.366-.026-.775-.077-1.228h.05c.082.314.422.898 1.02 1.75.572.811.857 1.258.857 1.343h.769a46.432 46.432 0 0 1-.043-2.11c0-.77.014-1.412.043-1.924h-.779c.03.589.044 1.162.044 1.722 0 .366.025.78.075 1.24h-.047c-.08-.29-.394-.84-.94-1.652-.513-.764-.77-1.2-.77-1.31zm17.356 0c.027.527.04 1.17.04 1.923 0 .766-.013 1.47-.04 2.11h.881a49.134 49.134 0 0 1-.04-2.11c0-.762.013-1.404.04-1.924zm8.886 0c0 .125-.242.809-.726 2.05-.485 1.242-.727 1.901-.727 1.983h.935c0-.147.098-.534.294-1.16h1.439c.189.637.283 1.023.283 1.16h.996c0-.112-.22-.783-.659-2.013-.438-1.23-.658-1.903-.658-2.02zm16.845 0a43.998 43.998 0 0 1 0 4.034h.766a46.966 46.966 0 0 1-.044-1.866c0-.366-.026-.775-.078-1.228h.05c.083.314.423.898 1.022 1.75.57.811.855 1.258.855 1.343h.77a46.43 46.43 0 0 1-.043-2.11c0-.77.014-1.412.043-1.924h-.779c.03.589.043 1.162.043 1.722 0 .366.026.78.076 1.24h-.047c-.08-.29-.394-.84-.94-1.652-.513-.764-.77-1.2-.77-1.31zm-80.711.375c.085.104.12.154.161.197 5.02 5.083 10.041 10.163 15.054 15.25.203.206.294.118.445-.032a701.253 701.253 0 0 1 4.205-4.162c.224-.22.23-.31-.06-.47-6.305-3.506-12.607-7.022-18.908-10.536-.256-.142-.521-.25-.897-.247zm34.93.179h.049c0 .086.177.662.532 1.728h-1.133c.367-1.072.551-1.648.551-1.728zm29.41 0h.048c0 .086.179.662.534 1.728h-1.133c.367-1.072.55-1.648.55-1.728zm3.965.008c.59 0 .884.222.884.664 0 .477-.38.715-1.137.715a2.28 2.28 0 0 1-.18-.006c0-.493-.011-.935-.034-1.326.164-.031.32-.047.467-.047zm3.734 0c.59 0 .884.222.884.664 0 .477-.379.715-1.136.715-.069 0-.129-.002-.18-.006 0-.493-.012-.935-.035-1.326.164-.031.32-.047.467-.047zm-24.366.004c.531 0 .797.205.797.616 0 .457-.33.685-.99.685-.079 0-.175-.002-.29-.006 0-.514-.01-.932-.033-1.252.149-.028.32-.043.516-.043zm4.413.012c.326 0 .6.134.822.402.222.27.333.62.333 1.051 0 .412-.106.752-.317 1.024-.212.271-.47.407-.773.407-.324 0-.597-.135-.82-.404-.223-.27-.335-.619-.335-1.049 0-.413.106-.754.318-1.025.211-.27.469-.406.772-.406zm25.731 0c.326 0 .6.134.822.402.222.27.334.62.334 1.051 0 .412-.107.752-.319 1.024-.211.271-.468.407-.772.407-.324 0-.596-.135-.82-.404-.223-.27-.335-.619-.335-1.049 0-.413.107-.754.318-1.025.212-.27.469-.406.772-.406zm-34.604.022c.478 0 .832.136 1.065.407.232.271.348.606.348 1.002 0 .397-.107.733-.322 1.009-.214.275-.545.413-.992.413-.134 0-.27-.013-.404-.04-.02-.485-.03-.974-.03-1.468 0-.45-.011-.882-.032-1.295.156-.019.278-.028.367-.028zm14.897 0c.478 0 .832.136 1.065.407.232.271.348.606.348 1.002 0 .397-.106.733-.321 1.009-.215.275-.546.413-.992.413-.136 0-.27-.013-.405-.04-.02-.485-.03-.974-.03-1.468 0-.45-.011-.882-.032-1.295.155-.019.278-.028.367-.028zm-59.156.155c-.072.007-.138.06-.216.142-.4.424-.51.938-.51 1.5.004 4.578.003 9.157.003 13.735h-.008v5.751c.002 2.712.007 5.424.006 8.136-.001.643.2 1.183.728 1.587.288.22.5.253.8-.047 4.917-4.9 9.848-9.787 14.783-14.67.207-.205.19-.307-.006-.504-2.018-2.022-4.026-4.056-6.035-6.087-3.104-3.137-6.207-6.273-9.303-9.417-.096-.096-.171-.134-.242-.126zm41.286 8.133c-2.08 0-3.846.718-5.302 2.151-1.455 1.436-2.182 3.214-2.182 5.336 0 2.121.727 3.9 2.182 5.335 1.456 1.436 3.222 2.153 5.302 2.153 2.172 0 3.937-.708 5.292-2.123 1.194-1.186 1.79-2.782 1.79-4.784 0-.348-.033-.707-.1-1.082h-6.982v1.722h5.23c-.107 1.241-.509 2.209-1.206 2.903-1.073 1.068-2.415 1.602-4.024 1.602-1.516 0-2.826-.53-3.933-1.592-1.107-1.062-1.66-2.439-1.66-4.134 0-1.695.553-3.073 1.66-4.134 1.107-1.062 2.417-1.592 3.933-1.592 1.677 0 2.992.567 3.944 1.702l1.267-1.26c-.563-.668-1.314-1.203-2.253-1.603a7.46 7.46 0 0 0-2.958-.6zm41.025.32v14.335h1.85V19.77zm18.026 0v14.335h1.851v-5.807h3.058c1.22 0 2.277-.403 3.17-1.21.89-.807 1.336-1.826 1.336-3.054 0-1.228-.445-2.245-1.337-3.054-.892-.806-1.948-1.21-3.17-1.21zm10.623 0v14.335h1.851V19.77zm-8.772 1.762h3.098c.777 0 1.402.26 1.871.781.47.52.705 1.094.705 1.72 0 .629-.235 1.202-.705 1.723-.47.52-1.094.781-1.871.781h-3.098zm-80.14.932c-.08.012-.155.06-.241.147a622.355 622.355 0 0 1-4.45 4.406c-.19.188-.186.29 0 .476a367.005 367.005 0 0 1 3.814 3.86c.197.204.34.21.578.077 1.772-.983 3.552-1.952 5.327-2.928.3-.165.602-.33.876-.53.37-.272.615-.635.634-1.15-.024-.642-.447-1.034-.99-1.338-1.759-.98-3.52-1.955-5.274-2.945-.109-.06-.194-.086-.274-.075zm32.155 1.51c-1.475 0-2.689.497-3.641 1.492-.953.994-1.43 2.239-1.43 3.734 0 1.494.477 2.739 1.43 3.734.952.994 2.166 1.491 3.641 1.491s2.689-.497 3.642-1.491c.952-.995 1.428-2.24 1.428-3.734 0-1.495-.476-2.74-1.428-3.734-.953-.995-2.167-1.492-3.642-1.492zm10.764 0c-1.477 0-2.69.497-3.642 1.492-.952.994-1.428 2.239-1.428 3.734 0 1.494.476 2.739 1.428 3.734.952.994 2.165 1.491 3.642 1.491 1.474 0 2.689-.497 3.642-1.491.952-.995 1.428-2.24 1.428-3.734 0-1.495-.476-2.74-1.428-3.734-.953-.995-2.168-1.492-3.642-1.492zm10.383 0c-1.275 0-2.375.5-3.301 1.501-.926 1.001-1.388 2.243-1.388 3.725 0 1.481.462 2.722 1.388 3.723.926 1.002 2.026 1.502 3.3 1.502.737 0 1.402-.16 1.992-.48.59-.32 1.046-.722 1.368-1.202h.08v.94c0 1.043-.291 1.866-.875 2.473-.583.608-1.384.911-2.403.911-.645 0-1.219-.18-1.72-.54-.504-.36-.85-.808-1.037-1.341l-1.69.7c.321.747.85 1.412 1.589 1.992.737.581 1.69.871 2.858.871 1.408 0 2.601-.437 3.58-1.31.98-.876 1.469-2.154 1.469-3.836v-9.309h-1.77v1.362h-.081c-.322-.48-.779-.881-1.368-1.202-.59-.319-1.255-.48-1.991-.48zm14.725 0c-1.407 0-2.565.514-3.47 1.542-.905 1.027-1.358 2.255-1.358 3.684 0 1.507.467 2.756 1.398 3.743.933.988 2.143 1.482 3.632 1.482 1.073 0 1.978-.257 2.716-.77.737-.514 1.268-1.152 1.59-1.913l-1.65-.68c-.47 1.12-1.368 1.681-2.696 1.681-.82 0-1.533-.287-2.143-.861-.61-.573-.943-1.354-.995-2.342h7.786l.02-.34c0-1.588-.44-2.856-1.319-3.804-.878-.948-2.048-1.422-3.51-1.422zm28.208 0c-1.1 0-1.986.25-2.656.75-.67.502-1.12 1.046-1.349 1.633l1.691.72c.162-.44.46-.788.896-1.04.435-.254.922-.38 1.459-.38.724 0 1.334.216 1.83.65.496.433.744 1.01.744 1.73v.282c-.697-.4-1.589-.601-2.675-.601-1.22 0-2.247.304-3.078.91-.833.609-1.248 1.445-1.248 2.513 0 .988.352 1.782 1.057 2.383.703.6 1.578.901 2.624.901 1.422 0 2.503-.561 3.24-1.682h.08v1.362h1.77v-5.926c0-1.335-.415-2.369-1.247-3.103-.831-.734-1.877-1.102-3.138-1.102zm4.73.32l4.063 9.19-2.294 4.945h1.912l6.176-14.135h-2.012l-2.856 7.048h-.04l-2.938-7.048zm-68.81 1.362c.871 0 1.627.323 2.264.97.637.648.955 1.506.955 2.574 0 1.067-.318 1.925-.955 2.572s-1.393.971-2.264.971c-.873 0-1.626-.324-2.263-.97-.637-.648-.956-1.506-.956-2.573 0-1.068.319-1.926.956-2.574.637-.647 1.39-.97 2.263-.97zm10.764 0c.872 0 1.625.323 2.264.97.637.648.956 1.506.956 2.574 0 1.067-.32 1.925-.956 2.572-.64.647-1.392.971-2.264.971-.872 0-1.627-.324-2.264-.97-.637-.648-.955-1.506-.955-2.573 0-1.068.318-1.926.955-2.574.637-.647 1.392-.97 2.264-.97zm10.684 0c.872 0 1.613.32 2.223.961.61.64.915 1.501.915 2.583 0 1.08-.305 1.942-.915 2.583-.61.64-1.351.96-2.223.96-.859 0-1.597-.324-2.213-.97-.617-.648-.926-1.506-.926-2.573 0-1.068.309-1.926.926-2.574.616-.647 1.354-.97 2.213-.97zm14.384 0c.939 0 1.647.253 2.123.76.476.508.735 1.041.775 1.603H99.07c.188-.72.533-1.295 1.036-1.722a2.661 2.661 0 0 1 1.78-.64zm-73.52 2.34c-.1-.006-.203.056-.344.199-4.564 4.611-9.14 9.21-13.715 13.81.05-.032.14-.12.236-.172 5.868-3.205 11.736-6.413 17.608-9.612.282-.154.264-.238.056-.445a265.478 265.478 0 0 1-3.516-3.566c-.127-.132-.224-.207-.324-.214zm102.03 1.244c1.046 0 1.83.213 2.353.64 0 .775-.31 1.445-.935 2.012-.624.567-1.318.851-2.082.851-.536 0-1.013-.14-1.428-.42-.417-.281-.624-.66-.624-1.141 0-.521.228-.974.683-1.363.456-.386 1.133-.58 2.033-.58z" fill="currentColor"/></symbol><use xlink:href="#icon"/></svg>